<svg xmlns="http://www.w3.org/2000/svg" viewBox="0 0 360 80" width="360" height="80" role="img" aria-label="Maria Radkovskaya wellness logo">
  <defs>
    <linearGradient id="anastasia-petal" x1="0%" y1="0%" x2="100%" y2="100%">
      <stop offset="0%" stop-color="#ffd8d8" />
      <stop offset="55%" stop-color="#f4a7b9" />
      <stop offset="100%" stop-color="#c97aa2" />
    </linearGradient>
    <linearGradient id="anastasia-leaf" x1="0%" y1="0%" x2="100%" y2="100%">
      <stop offset="0%" stop-color="#9dd8c3" />
      <stop offset="100%" stop-color="#3e8570" />
    </linearGradient>
    <linearGradient id="anastasia-word" x1="0%" y1="0%" x2="100%" y2="0%">
      <stop offset="0%" stop-color="#375f55" />
      <stop offset="100%" stop-color="#8f5f88" />
    </linearGradient>
  </defs>

  <g transform="translate(8,8)">
    <rect x="0" y="0" width="62" height="62" rx="18" fill="#fff8fb" />
    <g transform="translate(31,31)">
      <ellipse cx="0" cy="-15" rx="9" ry="13" fill="url(#anastasia-petal)" />
      <ellipse cx="13" cy="-5" rx="8" ry="12" fill="url(#anastasia-petal)" transform="rotate(45 13 -5)" />
      <ellipse cx="13" cy="8" rx="8" ry="12" fill="url(#anastasia-petal)" transform="rotate(95 13 8)" />
      <ellipse cx="0" cy="15" rx="9" ry="13" fill="url(#anastasia-petal)" />
      <ellipse cx="-13" cy="8" rx="8" ry="12" fill="url(#anastasia-petal)" transform="rotate(-95 -13 8)" />
      <ellipse cx="-13" cy="-5" rx="8" ry="12" fill="url(#anastasia-petal)" transform="rotate(-45 -13 -5)" />
      <circle cx="0" cy="0" r="7" fill="#fff2cc" />
      <path d="M-6 14 C-2 11 2 11 6 14 C4 21 1 24 0 24 C-1 24 -4 21 -6 14 Z" fill="url(#anastasia-leaf)" />
    </g>
  </g>

  <text x="84" y="38" font-family="Trebuchet MS, Segoe UI, sans-serif" font-size="31" font-weight="700" fill="url(#anastasia-word)" letter-spacing="0.2">
    MARIA RADKOVSKAYA
  </text>
  <text x="86" y="58" font-family="Trebuchet MS, Segoe UI, sans-serif" font-size="12" font-weight="600" fill="#7a8f86" letter-spacing="1.7">
    WELLNESS CONSULTING
  </text>
</svg>
